<svg xmlns="http://www.w3.org/2000/svg" width="298" height="812" viewBox="0 0 298 812">
  <defs>
    <style>
      .cls-1 {
        fill: #182e38;
      }

      .cls-2 {
        opacity: 0.25;
      }

      .cls-2, .cls-49, .cls-50 {
        mix-blend-mode: luminosity;
        isolation: isolate;
      }

      .cls-3 {
        fill: #bf7341;
      }

      .cls-4 {
        fill: #b36b3d;
      }

      .cls-5 {
        fill: #8c563b;
      }

      .cls-6 {
        fill: #734730;
      }

      .cls-7 {
        fill: #88b337;
      }

      .cls-8 {
        fill: #69412c;
      }

      .cls-9 {
        fill: #ff5023;
      }

      .cls-10 {
        fill: #ff3501;
      }

      .cls-11 {
        fill: #cd2a00;
      }

      .cls-12 {
        fill: #ab2300;
      }

      .cls-13 {
        fill: #ff6243;
      }

      .cls-14 {
        fill: #1d1d1f;
      }

      .cls-15 {
        fill: #e94444;
      }

      .cls-16 {
        fill: #d83131;
      }

      .cls-17 {
        fill: #fe9738;
      }

      .cls-18 {
        fill: #fe860a;
      }

      .cls-19 {
        fill: #bbec6c;
      }

      .cls-20 {
        fill: #a2e62e;
      }

      .cls-21 {
        fill: #fee45a;
      }

      .cls-22 {
        fill: #fedf30;
      }

      .cls-23 {
        fill: #9e5528;
      }

      .cls-24 {
        fill: #904d24;
      }

      .cls-25 {
        fill: #e57917;
      }

      .cls-26 {
        fill: #ffab5f;
      }

      .cls-27 {
        fill: #78b591;
      }

      .cls-28 {
        fill: #b0ce6f;
      }

      .cls-29 {
        fill: #659b7b;
      }

      .cls-30 {
        fill: #7e8e51;
      }

      .cls-31 {
        fill: #ef645e;
      }

      .cls-32 {
        fill: #c14616;
      }

      .cls-33 {
        opacity: 0.1;
      }

      .cls-34 {
        fill: #ffe783;
      }

      .cls-35 {
        fill: #fff4bd;
      }

      .cls-36 {
        fill: #f7e07c;
      }

      .cls-37 {
        fill: #f2d8a0;
      }

      .cls-38 {
        fill: #fce9c3;
      }

      .cls-39 {
        fill: #b3b3b3;
      }

      .cls-40 {
        fill: #ccc;
      }

      .cls-41 {
        fill: #dab4a7;
      }

      .cls-42 {
        fill: #d1a190;
      }

      .cls-43 {
        fill: #bd7c63;
      }

      .cls-44 {
        fill: #ac6a51;
      }

      .cls-45 {
        fill: #fef1da;
      }

      .cls-46 {
        fill: #fde6bf;
      }

      .cls-47 {
        fill: #fdd79b;
      }

      .cls-48 {
        fill: #fccd7f;
      }

      .cls-49, .cls-50 {
        fill: #fff;
      }

      .cls-49 {
        opacity: 0.08;
      }

      .cls-50 {
        opacity: 0.081;
      }
    </style>
  </defs>
  <g id="Background" transform="translate(16.392)">
    <rect id="Rectangle_1" data-name="Rectangle 1" class="cls-1" width="298" height="812" transform="translate(-16.392)"/>
    <g id="steak_1_" data-name="steak (1)" class="cls-2" transform="translate(0.002 533.359) rotate(-31)">
      <path id="Path_1" data-name="Path 1" class="cls-3" d="M42.646,0H18.48A18.48,18.48,0,0,0,0,18.48C0,28.715,7.924,37.471,18.157,37.892A18.955,18.955,0,0,0,36.2,26.82a3.753,3.753,0,0,1,3.424-2.18H42.3A12.549,12.549,0,0,0,54.952,12.915,12.319,12.319,0,0,0,42.646,0Zm0,0" transform="translate(0 0)"/>
      <path id="Path_2" data-name="Path 2" class="cls-4" d="M40.513,0C30.136,16.465,12.572,26.322,0,31.566a18.571,18.571,0,0,0,12.762,5.876A18.955,18.955,0,0,0,30.807,26.367a3.753,3.753,0,0,1,3.424-2.18H36.9A12.549,12.549,0,0,0,49.557,12.463,12.311,12.311,0,0,0,40.513,0Zm0,0" transform="translate(5.395 0.453)"/>
      <path id="Path_3" data-name="Path 3" class="cls-5" d="M15.163,30.326q-.321,0-.644-.014C6.514,29.985,0,22.975,0,14.689A14.7,14.7,0,0,1,14.689,0H38.855a8.529,8.529,0,0,1,8.52,8.945,8.806,8.806,0,0,1-8.868,8.113H35.835a7.555,7.555,0,0,0-6.871,4.392A15.211,15.211,0,0,1,15.163,30.326Zm0,0" transform="translate(3.791 3.791)"/>
      <path id="Path_4" data-name="Path 4" class="cls-6" d="M.278,10.31,10.31.277A.948.948,0,0,1,11.65,1.618L1.618,11.65a.948.948,0,0,1-1.34-1.34Zm0,0" transform="translate(8.252 8.251)"/>
      <path id="Path_5" data-name="Path 5" class="cls-6" d="M.278,18.839,18.839.278a.948.948,0,1,1,1.34,1.34L1.618,20.179a.948.948,0,0,1-1.34-1.34Zm0,0" transform="translate(21.52 8.252)"/>
      <path id="Path_6" data-name="Path 6" class="cls-6" d="M.278,17.891,17.891.278a.948.948,0,1,1,1.341,1.34L1.618,19.232a.948.948,0,0,1-1.34-1.341Zm0,0" transform="translate(11.095 8.251)"/>
      <path id="Path_7" data-name="Path 7" class="cls-7" d="M18.145,4.758l-.79-1.723a18.138,18.138,0,0,1-2.005.772L13.765.63l-1.7.847L13.49,4.314a19.813,19.813,0,0,1-2.823.4L9.062.7l-1.761.7L8.631,4.75A15.517,15.517,0,0,1,6.2,4.465L4.435,0,2.672.7,3.89,3.782A10.8,10.8,0,0,1,1.185,2.214L0,3.694a12.813,12.813,0,0,0,3.038,1.79L1.024,7.114,2.216,8.587l2.963-2.4a16.816,16.816,0,0,0,3.061.466L6.468,9.015l1.516,1.137,2.63-3.506a21.069,21.069,0,0,0,2.378-.291l-.929,1.857,1.7.847L15.4,5.78A20.876,20.876,0,0,0,18.145,4.758Zm0,0" transform="translate(37.315 28.324)"/>
      <g id="Group_1" data-name="Group 1" transform="translate(18.954 6.634)">
        <path id="Path_8" data-name="Path 8" class="cls-8" d="M0,0H1.9V1.9H0ZM0,0" transform="translate(3.791 0)"/>
        <path id="Path_9" data-name="Path 9" class="cls-8" d="M0,0H1.9V1.9H0ZM0,0" transform="translate(23.692 7.582)"/>
        <path id="Path_10" data-name="Path 10" class="cls-8" d="M0,0H1.9V1.9H0ZM0,0" transform="translate(0 17.058)"/>
        <path id="Path_11" data-name="Path 11" class="cls-8" d="M0,0H1.9V1.9H0ZM0,0" transform="translate(26.535 1.895)"/>
        <path id="Path_12" data-name="Path 12" class="cls-8" d="M0,0H1.9V1.9H0ZM0,0" transform="translate(11.372 30.326)"/>
        <path id="Path_13" data-name="Path 13" class="cls-8" d="M0,0H1.9V1.9H0ZM0,0" transform="translate(33.169 18.006)"/>
      </g>
    </g>
    <g id="lobster" class="cls-2" transform="translate(-5.78 140.841) rotate(-21)">
      <g id="Group_2" data-name="Group 2" transform="translate(17.178 49.986)">
        <path id="Path_14" data-name="Path 14" class="cls-9" d="M7.5,11.051A4.1,4.1,0,0,1,.7,6.473C1.963,4.594,8-1.083,9.875.182S8.766,9.173,7.5,11.051Z" transform="translate(0)"/>
        <path id="Path_15" data-name="Path 15" class="cls-9" d="M2.978,11.051a4.1,4.1,0,1,0,6.8-4.579C8.516,4.594,2.482-1.083.6.182S1.714,9.173,2.978,11.051Z" transform="translate(8.736 0)"/>
      </g>
      <g id="Group_3" data-name="Group 3" transform="translate(19.358 49.986)">
        <path id="Path_16" data-name="Path 16" class="cls-10" d="M8.2,10.343a4.1,4.1,0,1,1-8.2,0C0,8.078,1.836,0,4.1,0S8.2,8.079,8.2,10.343Z" transform="translate(3.596 0.182)"/>
        <path id="Path_17" data-name="Path 17" class="cls-10" d="M8.55,5.007C6.305,2.631,2.113-.834.6.182-.567.97.153,4.267,1.167,7.1H2.981A8.456,8.456,0,0,0,8.55,5.007Z" transform="translate(6.556 0)"/>
        <path id="Path_18" data-name="Path 18" class="cls-10" d="M7.7.182C6.241-.8,2.294,2.388,0,4.746A8.462,8.462,0,0,0,5.855,7.1H7.133C8.147,4.267,8.867.97,7.7.182Z" transform="translate(0 0)"/>
      </g>
      <g id="Group_4" data-name="Group 4" transform="translate(12.669 12.245)">
        <path id="Path_19" data-name="Path 19" class="cls-11" d="M1.718,6.913H5.4a8.51,8.51,0,0,0,1.718-.175C6.412,3.656,5.083,0,3.559,0S.707,3.656,0,6.739A8.492,8.492,0,0,0,1.718,6.913Z" transform="translate(10.826 37.922)"/>
        <path id="Path_20" data-name="Path 20" class="cls-11" d="M.563,6.034A.971.971,0,0,1,.1,4.714L2.094.561A.989.989,0,0,1,3.5.142l4.813,2.9A.989.989,0,0,1,7.288,4.737L3.406,2.4,1.883,5.57A1,1,0,0,1,.563,6.034Z" transform="translate(0 23.027)"/>
        <path id="Path_21" data-name="Path 21" class="cls-11" d="M.563,6.034A.977.977,0,0,1,.1,4.714L2.093.561A.989.989,0,0,1,3.5.142l4.813,2.9A.989.989,0,1,1,7.287,4.737L3.406,2.4,1.882,5.57A.978.978,0,0,1,.563,6.034Z" transform="translate(1.027 30.085)"/>
        <path id="Path_22" data-name="Path 22" class="cls-11" d="M6.9,5.57,5.381,2.4,1.5,4.737A.989.989,0,1,1,.479,3.043L5.291.142a.989.989,0,0,1,1.4.419L8.688,4.714a.983.983,0,0,1-.464,1.319A.889.889,0,0,1,6.9,5.57Z" transform="translate(19.983 23.027)"/>
        <path id="Path_23" data-name="Path 23" class="cls-11" d="M6.9,5.57,5.381,2.4,1.5,4.737A.989.989,0,1,1,.479,3.043L5.292.142a.989.989,0,0,1,1.4.419L8.688,4.714a1,1,0,0,1-.464,1.319A.952.952,0,0,1,6.9,5.57Z" transform="translate(18.957 30.085)"/>
        <path id="Path_24" data-name="Path 24" class="cls-11" d="M.827,17.958h0a3.041,3.041,0,0,0,4.286.116L18.672,5.229A3.041,3.041,0,0,0,18.788.943h0A3.041,3.041,0,0,0,14.5.827L.943,13.672A3.041,3.041,0,0,0,.827,17.958Z" transform="translate(18.749 0)"/>
      </g>
      <path id="Path_25" data-name="Path 25" class="cls-9" d="M4.515,15.947A6.779,6.779,0,0,0,15.191,7.591C12.883,4.643,3.971-1.819,1.023.488S2.207,13,4.515,15.947Z" transform="translate(37.476 0)"/>
      <path id="Path_26" data-name="Path 26" class="cls-10" d="M4.515,15.459C2.207,12.511-1.925,2.308,1.023,0L14.031,16.619A6.779,6.779,0,0,1,4.515,15.459Z" transform="translate(37.476 0.488)"/>
      <path id="Path_27" data-name="Path 27" class="cls-12" d="M8.875,7.066A40.587,40.587,0,0,0,7.517,0L.943,6.228a3.032,3.032,0,1,0,4.17,4.4Z" transform="translate(31.418 19.69)"/>
      <path id="Path_28" data-name="Path 28" class="cls-11" d="M18.788,17.958h0a3.041,3.041,0,0,1-4.286.116L.943,5.229A3.041,3.041,0,0,1,.827.943h0A3.041,3.041,0,0,1,5.113.827L18.673,13.672A3.041,3.041,0,0,1,18.788,17.958Z" transform="translate(3.075 12.246)"/>
      <path id="Path_29" data-name="Path 29" class="cls-9" d="M12.117,15.947A6.779,6.779,0,1,1,1.441,7.591c2.308-2.948,11.22-9.41,14.168-7.1S14.424,13,12.117,15.947Z" transform="translate(0 0)"/>
      <path id="Path_30" data-name="Path 30" class="cls-10" d="M9.516,15.459C11.824,12.511,15.956,2.308,13.008,0L0,16.619A6.779,6.779,0,0,0,9.516,15.459Z" transform="translate(2.601 0.488)"/>
      <path id="Path_31" data-name="Path 31" class="cls-12" d="M1.358,0A40.6,40.6,0,0,0,0,7.066L3.762,10.63a3.041,3.041,0,0,0,4.286-.116h0a3.041,3.041,0,0,0-.116-4.286Z" transform="translate(13.816 19.69)"/>
      <g id="Group_5" data-name="Group 5" transform="translate(1.125 5.336)">
        <path id="Path_32" data-name="Path 32" class="cls-10" d="M.545,38.312a.979.979,0,0,1-.437-1.329L18.505.543A.989.989,0,0,1,20.024.232l4.943,4.154A.989.989,0,0,1,23.7,5.9l-3.987-3.35L1.873,37.874A1,1,0,0,1,.545,38.312Z" transform="translate(0)"/>
        <path id="Path_33" data-name="Path 33" class="cls-10" d="M23.447,37.874,5.613,2.549,1.625,5.9A.989.989,0,1,1,.353,4.386L5.3.232A.989.989,0,0,1,6.815.543l18.4,36.44a1,1,0,0,1-.437,1.329A.985.985,0,0,1,23.447,37.874Z" transform="translate(26.538 0)"/>
      </g>
      <path id="Path_34" data-name="Path 34" class="cls-9" d="M8.881,11.02H5.2A5.214,5.214,0,0,1,0,5.822V5.2A5.214,5.214,0,0,1,5.2,0H8.881a5.214,5.214,0,0,1,5.2,5.2v.624A5.214,5.214,0,0,1,8.881,11.02Z" transform="translate(20.015 42.765)"/>
      <path id="Path_35" data-name="Path 35" class="cls-10" d="M8.881,0H5.2A5.214,5.214,0,0,0,0,5.2v.624a5.168,5.168,0,0,0,.061.793A9.193,9.193,0,0,0,4.931,8H9.149a9.193,9.193,0,0,0,4.87-1.39,5.169,5.169,0,0,0,.061-.793V5.2A5.214,5.214,0,0,0,8.881,0Z" transform="translate(20.015 42.764)"/>
      <path id="Path_36" data-name="Path 36" class="cls-9" d="M10.173,12.624H5.955A5.972,5.972,0,0,1,0,6.669V5.955A5.972,5.972,0,0,1,5.955,0h4.218a5.972,5.972,0,0,1,5.955,5.955v.714A5.972,5.972,0,0,1,10.173,12.624Z" transform="translate(18.99 34.849)"/>
      <path id="Path_37" data-name="Path 37" class="cls-10" d="M10.173,0H5.955A5.972,5.972,0,0,0,0,5.955v.714A5.924,5.924,0,0,0,.114,7.822,9.766,9.766,0,0,0,5.752,9.608h4.623a9.767,9.767,0,0,0,5.639-1.787,5.925,5.925,0,0,0,.114-1.153V5.955A5.973,5.973,0,0,0,10.173,0Z" transform="translate(18.99 34.849)"/>
      <path id="Path_38" data-name="Path 38" class="cls-9" d="M11.15,13.836H6.527A6.546,6.546,0,0,1,0,7.309V6.527A6.546,6.546,0,0,1,6.527,0H11.15a6.546,6.546,0,0,1,6.527,6.527v.783A6.546,6.546,0,0,1,11.15,13.836Z" transform="translate(18.216 27.325)"/>
      <path id="Path_39" data-name="Path 39" class="cls-10" d="M17.676,6.527A6.546,6.546,0,0,0,11.15,0H6.527A6.546,6.546,0,0,0,0,6.527v.783A6.48,6.48,0,0,0,.2,8.9a24.575,24.575,0,0,0,8.641,1.316A26.086,26.086,0,0,0,17.479,8.9a6.481,6.481,0,0,0,.2-1.589V6.527Z" transform="translate(18.216 27.325)"/>
      <path id="Path_40" data-name="Path 40" class="cls-13" d="M20.021,20.931c0,5.528-4.482,6-10.01,6S0,26.46,0,20.931,4.482,0,10.01,0,20.021,15.4,20.021,20.931Z" transform="translate(17.044 7.307)"/>
      <g id="Group_6" data-name="Group 6" transform="translate(17.044 7.307)">
        <path id="Path_41" data-name="Path 41" class="cls-9" d="M5.375,20.932c0-4.6,3.1-16.023,7.323-19.741A4.127,4.127,0,0,0,10.01,0C4.482,0,0,15.4,0,20.931s4.482,6,10.01,6c.931,0,1.832-.014,2.687-.063C8.475,26.631,5.375,25.529,5.375,20.932Z" transform="translate(0 0)"/>
        <path id="Path_42" data-name="Path 42" class="cls-9" d="M.626,2.98C.447,2.419.256,1.864.061,1.33A.989.989,0,0,1,1.918.649c.205.56.4,1.142.592,1.73a.98.98,0,0,1-.641,1.243A1.021,1.021,0,0,1,.626,2.98Z" transform="translate(12.806 9.865)"/>
        <path id="Path_43" data-name="Path 43" class="cls-9" d="M1.811,7.264a.989.989,0,0,1-.989-.989A25.223,25.223,0,0,0,.028,1.222.989.989,0,0,1,1.95.757,26.728,26.728,0,0,1,2.8,6.275.989.989,0,0,1,1.811,7.264Z" transform="translate(14.254 14.657)"/>
      </g>
      <g id="Group_7" data-name="Group 7" transform="translate(23.693 11.436)">
        <path id="Path_44" data-name="Path 44" class="cls-14" d="M1.161,2.323a1.163,1.163,0,1,1,.821-.341A1.162,1.162,0,0,1,1.161,2.323Z"/>
        <path id="Path_45" data-name="Path 45" class="cls-14" d="M1.161,2.323a1.163,1.163,0,1,1,.821-.341A1.162,1.162,0,0,1,1.161,2.323Z" transform="translate(4.4)"/>
      </g>
    </g>
    <g id="hamburger" class="cls-2" transform="matrix(0.921, 0.391, -0.391, 0.921, 185.169, 92.016)">
      <path id="Path_46" data-name="Path 46" class="cls-15" d="M41.747,6.64H3.022A3.022,3.022,0,0,1,0,3.618v-.6A3.022,3.022,0,0,1,3.022,0H41.747a3.022,3.022,0,0,1,3.022,3.022v.6A3.022,3.022,0,0,1,41.747,6.64Z" transform="translate(0 28.075)"/>
      <path id="Path_47" data-name="Path 47" class="cls-16" d="M4.791,3.022v.6A3.022,3.022,0,0,1,1.769,6.641H0A3.022,3.022,0,0,0,3.022,3.617v-.6A3.022,3.022,0,0,0,0,0H1.769A3.022,3.022,0,0,1,4.791,3.022Z" transform="translate(39.978 28.075)"/>
      <path id="Path_48" data-name="Path 48" class="cls-17" d="M38.815,0H.09S-1.245,6.448,6.354,8.985a12.69,12.69,0,0,0,4.024.637H28.527a12.69,12.69,0,0,0,4.024-.637C40.15,6.448,38.815,0,38.815,0Z" transform="translate(2.932 34.715)"/>
      <path id="Path_49" data-name="Path 49" class="cls-18" d="M6.075,8.985a12.68,12.68,0,0,1-4.024.638H0a12.682,12.682,0,0,0,4.024-.638C11.623,6.448,10.288,0,10.288,0h2.051S13.675,6.448,6.075,8.985Z" transform="translate(29.408 34.715)"/>
      <path id="Path_50" data-name="Path 50" class="cls-19" d="M38.886,3.572A1.782,1.782,0,0,1,35.966,4.94a2.849,2.849,0,0,0-1.942-.706c-2.43,0-2.43,1.925-4.861,1.925S26.733,4.235,24.3,4.235,21.873,6.16,19.442,6.16s-2.43-1.925-4.86-1.925S12.152,6.16,9.721,6.16,7.291,4.235,4.861,4.235a2.848,2.848,0,0,0-1.941.706A1.782,1.782,0,0,1,0,3.571V0H38.886V3.572Z" transform="translate(2.932 25.707)"/>
      <path id="Path_51" data-name="Path 51" class="cls-20" d="M2.687,0V3.572A1.781,1.781,0,0,1,0,5.1,1.747,1.747,0,0,0,.874,3.572V0Z" transform="translate(39.131 25.707)"/>
      <path id="Path_52" data-name="Path 52" class="cls-21" d="M0,0V2.888H4.169a1.57,1.57,0,0,1,1.57,1.57v8.318a2.008,2.008,0,1,0,4.015,0V4.458a1.57,1.57,0,0,1,1.57-1.57H38.866V0Z" transform="translate(2.952 22.845)"/>
      <path id="Path_53" data-name="Path 53" class="cls-22" d="M0,0H1.813V2.888H0Z" transform="translate(40.005 22.845)"/>
      <path id="Path_54" data-name="Path 54" class="cls-23" d="M41.747,6.64H3.022A3.022,3.022,0,0,1,0,3.618v-.6A3.022,3.022,0,0,1,3.022,0H41.747a3.022,3.022,0,0,1,3.022,3.022v.6A3.023,3.023,0,0,1,41.747,6.64Z" transform="translate(0 16.403)"/>
      <path id="Path_55" data-name="Path 55" class="cls-24" d="M4.791,3.022v.6A3.022,3.022,0,0,1,1.769,6.64H0A3.022,3.022,0,0,0,3.022,3.617v-.6A3.022,3.022,0,0,0,0,0H1.769A3.022,3.022,0,0,1,4.791,3.022Z" transform="translate(39.978 16.403)"/>
      <path id="Path_56" data-name="Path 56" class="cls-17" d="M21.985,0C6.89.218,1.818,8.407.143,13.165A2.513,2.513,0,0,0,2.521,16.5H41.449a2.518,2.518,0,0,0,2.368-3.365C42.133,8.375,37.051.218,21.985,0Z" transform="translate(0.399 0)"/>
      <path id="Path_57" data-name="Path 57" class="cls-18" d="M31.349,16.5h-.215a2.517,2.517,0,0,0,.5-2.531C29.95,9.208,24.868,1.052,9.8.834A31.3,31.3,0,0,0,0,2.4,29.222,29.222,0,0,1,11.885,0C26.951.219,32.033,8.375,33.718,13.137A2.519,2.519,0,0,1,31.349,16.5Z" transform="translate(10.5 0)"/>
      <g id="Group_11" data-name="Group 11" transform="translate(15.5 4.457)">
        <g id="Group_8" data-name="Group 8" transform="translate(0 0.074)">
          <path id="Path_58" data-name="Path 58" class="cls-25" d="M.653,2.392a.654.654,0,0,1-.575-.965L.665.343a.654.654,0,1,1,1.15.622L1.229,2.049A.654.654,0,0,1,.653,2.392Z"/>
        </g>
        <g id="Group_9" data-name="Group 9" transform="translate(6.223 0)">
          <path id="Path_59" data-name="Path 59" class="cls-25" d="M.654,2.54A.654.654,0,0,1,0,1.886V.654a.654.654,0,0,1,1.308,0V1.886A.654.654,0,0,1,.654,2.54Z" transform="translate(0 0)"/>
        </g>
        <g id="Group_10" data-name="Group 10" transform="translate(11.843 0.083)">
          <path id="Path_60" data-name="Path 60" class="cls-25" d="M1.273,2.374a.654.654,0,0,1-.566-.326L.088.982A.654.654,0,0,1,1.219.326l.618,1.066a.654.654,0,0,1-.565.982Z"/>
        </g>
      </g>
    </g>
    <g id="spaghetti" class="cls-2" transform="translate(193.79 443.535) rotate(20)">
      <g id="Group_12" data-name="Group 12" transform="translate(14.791 27.326)">
        <circle id="Ellipse_1" data-name="Ellipse 1" class="cls-26" cx="4.016" cy="4.016" r="4.016"/>
        <circle id="Ellipse_2" data-name="Ellipse 2" class="cls-26" cx="4.016" cy="4.016" r="4.016" transform="translate(27.711 0)"/>
      </g>
      <path id="Path_61" data-name="Path 61" class="cls-27" d="M.393,3.313A5.383,5.383,0,0,1,4.684.012,1.47,1.47,0,0,1,6.026.558,5.366,5.366,0,0,1,2.5,9.218a1.47,1.47,0,0,1-1.342-.546A5.383,5.383,0,0,1,.393,3.313Z" transform="translate(29.218 14.485)"/>
      <path id="Path_62" data-name="Path 62" class="cls-28" d="M3.313,6.8A5.385,5.385,0,0,1,.012,2.5,1.47,1.47,0,0,1,.558,1.162a5.366,5.366,0,0,1,8.66,3.522,1.47,1.47,0,0,1-.545,1.342A5.384,5.384,0,0,1,3.313,6.8Z" transform="translate(20.518 17.597)"/>
      <path id="Path_63" data-name="Path 63" class="cls-29" d="M1.047,8.095A1.048,1.048,0,0,1,.077,6.653l2.44-6a1.047,1.047,0,0,1,1.94.789l-2.44,6A1.047,1.047,0,0,1,1.047,8.095Z" transform="translate(29.297 18.121)"/>
      <path id="Path_64" data-name="Path 64" class="cls-30" d="M7.047,4.534a1.042,1.042,0,0,1-.394-.077l-6-2.44A1.047,1.047,0,0,1,1.442.078l6,2.44a1.047,1.047,0,0,1-.395,2.017Z" transform="translate(24.154 20.172)"/>
      <path id="Path_65" data-name="Path 65" class="cls-31" d="M18.917,6.408a3.969,3.969,0,0,0-4.559-3.922,3.967,3.967,0,0,0-7.346-.032c-.1-.007-.2-.012-.3-.012A3.966,3.966,0,0,0,2.746,6.408c0,.019,0,.037,0,.056a3.356,3.356,0,0,0,.609,6.656H18.917a3.356,3.356,0,1,0,0-6.713Z" transform="translate(21.416 21.709)"/>
      <path id="Path_66" data-name="Path 66" class="cls-32" d="M1.579,2.094H1.047A1.047,1.047,0,0,1,1.047,0h.532a1.047,1.047,0,0,1,0,2.094Z" transform="translate(35.093 26.063)"/>
      <path id="Path_67" data-name="Path 67" class="cls-33" d="M4.337,11.195a3.357,3.357,0,0,1,2.748-3.3c0-.019,0-.037,0-.056a3.967,3.967,0,0,1,3.966-3.966c.1,0,.2.005.3.012A3.976,3.976,0,0,1,13.86,1.6a3.963,3.963,0,0,0-6.848.85c-.1-.007-.2-.012-.3-.012A3.966,3.966,0,0,0,2.746,6.408c0,.019,0,.037,0,.056a3.356,3.356,0,0,0,.609,6.656H4.945A3.34,3.34,0,0,1,4.337,11.195Z" transform="translate(21.416 21.709)"/>
      <path id="Path_68" data-name="Path 68" class="cls-26" d="M1.579,2.094H1.047A1.047,1.047,0,1,1,1.047,0h.532a1.047,1.047,0,0,1,0,2.094Z" transform="translate(30.591 23.774)"/>
      <path id="Path_69" data-name="Path 69" class="cls-32" d="M1.579,2.094H1.047A1.047,1.047,0,1,1,1.047,0h.532a1.047,1.047,0,1,1,0,2.094Z" transform="translate(28.991 26.978)"/>
      <g id="Group_13" data-name="Group 13" transform="translate(24.872 29.266)">
        <path id="Path_70" data-name="Path 70" class="cls-26" d="M1.579,2.094H1.047A1.047,1.047,0,0,1,1.047,0h.532a1.047,1.047,0,0,1,0,2.094Z" transform="translate(8.77 0)"/>
        <path id="Path_71" data-name="Path 71" class="cls-26" d="M1.579,2.094H1.047A1.047,1.047,0,0,1,1.047,0h.532a1.047,1.047,0,0,1,0,2.094Z"/>
      </g>
      <path id="Path_72" data-name="Path 72" class="cls-34" d="M47.737,8.375a8.375,8.375,0,0,1-8.375,8.375H8.375A8.375,8.375,0,0,1,0,8.375H0A8.375,8.375,0,0,1,8.375,0H39.362a8.375,8.375,0,0,1,8.375,8.375Z" transform="translate(12.911 32.91)"/>
      <path id="Path_73" data-name="Path 73" class="cls-35" d="M5.583,11.167A5.583,5.583,0,0,1,5.583,0H36.571a5.583,5.583,0,1,1,0,11.167Z" transform="translate(15.703 35.702)"/>
      <path id="Path_74" data-name="Path 74" class="cls-36" d="M2.792,5.583A2.792,2.792,0,0,1,2.792,0H33.779a2.792,2.792,0,1,1,0,5.583Z" transform="translate(18.495 38.493)"/>
      <path id="Path_75" data-name="Path 75" class="cls-34" d="M24.287,6.979a6.979,6.979,0,0,1-6.979,6.979H6.979A6.979,6.979,0,0,1,0,6.979H0A6.979,6.979,0,0,1,6.979,0H17.308a6.979,6.979,0,0,1,6.979,6.979Z" transform="translate(24.915 37.352)"/>
      <path id="Path_76" data-name="Path 76" class="cls-35" d="M4.187,8.375A4.187,4.187,0,0,1,4.187,0H14.516a4.187,4.187,0,0,1,0,8.375Z" transform="translate(27.707 40.144)"/>
      <path id="Path_77" data-name="Path 77" class="cls-34" d="M1.4,2.791A1.4,1.4,0,0,1,1.4,0H11.725a1.4,1.4,0,1,1,0,2.791Z" transform="translate(30.499 42.935)"/>
      <path id="Path_78" data-name="Path 78" class="cls-36" d="M24.287,6.979a6.979,6.979,0,0,1-6.979,6.979H6.979A6.979,6.979,0,0,1,0,6.979H0A6.979,6.979,0,0,1,6.979,0H17.308a6.979,6.979,0,0,1,6.979,6.979Z" transform="translate(5.653 32.91)"/>
      <path id="Path_79" data-name="Path 79" class="cls-35" d="M4.187,8.375A4.187,4.187,0,1,1,4.187,0H14.516a4.187,4.187,0,1,1,0,8.375Z" transform="translate(8.445 35.702)"/>
      <path id="Path_80" data-name="Path 80" class="cls-34" d="M1.4,2.791A1.4,1.4,0,0,1,1.4,0H11.725a1.4,1.4,0,1,1,0,2.791Z" transform="translate(11.236 38.494)"/>
      <path id="Path_81" data-name="Path 81" class="cls-37" d="M9.281,11.34H5.67A5.67,5.67,0,1,1,5.67,0H9.112a1.047,1.047,0,1,1,0,2.094H5.67a3.576,3.576,0,1,0,0,7.153H9.281a1.047,1.047,0,0,1,0,2.094Z" transform="translate(3.351 10.334)"/>
      <path id="Path_82" data-name="Path 82" class="cls-38" d="M5.606,12.428H1.568a1.047,1.047,0,1,1,0-2.094H5.606a4.12,4.12,0,0,0,0-8.24H1.047A1.047,1.047,0,1,1,1.047,0H5.606a6.214,6.214,0,1,1,0,12.428Z" transform="translate(15.817 0)"/>
      <path id="Path_83" data-name="Path 83" class="cls-37" d="M13.548,8.378H5.236a3.142,3.142,0,1,1,0-6.284h2.89A1.047,1.047,0,0,0,8.126,0H5.236a5.236,5.236,0,1,0,0,10.471h8.313a2.466,2.466,0,0,1,2.463,2.463v2.279a1.047,1.047,0,1,0,2.094,0V12.934A4.561,4.561,0,0,0,13.548,8.378Z" transform="translate(41.875 8.969)"/>
      <path id="Path_84" data-name="Path 84" class="cls-39" d="M0,0A8.117,8.117,0,0,0,7.666,5.453h32.47A8.117,8.117,0,0,0,47.8,0Z" transform="translate(9.25 47.546)"/>
      <path id="Path_85" data-name="Path 85" class="cls-33" d="M5.653,0H0A8.117,8.117,0,0,0,7.666,5.453h5.653A8.116,8.116,0,0,1,5.653,0Z" transform="translate(9.25 47.546)"/>
      <path id="Path_86" data-name="Path 86" class="cls-40" d="M66.3,2.215a2.215,2.215,0,0,1-2.215,2.215H2.215A2.215,2.215,0,0,1,0,2.215H0A2.215,2.215,0,0,1,2.215,0H64.086A2.215,2.215,0,0,1,66.3,2.215Z" transform="translate(0 44.56)"/>
      <path id="Path_87" data-name="Path 87" class="cls-33" d="M5.653,2.215A2.215,2.215,0,0,1,7.868,0H2.215a2.215,2.215,0,0,0,0,4.431H7.868A2.215,2.215,0,0,1,5.653,2.215Z" transform="translate(0 44.56)"/>
    </g>
    <g id="waffle" class="cls-2" transform="matrix(0.914, -0.407, 0.407, 0.914, 153.44, 734.325)">
      <path id="Path_88" data-name="Path 88" class="cls-41" d="M37.477,43.511,6.686,41.717a7.1,7.1,0,0,1-6.674-7.5l1.6-27.531A7.1,7.1,0,0,1,9.116.012L39.907,1.806a7.1,7.1,0,0,1,6.674,7.5l-1.6,27.531A7.1,7.1,0,0,1,37.477,43.511Zm0,0" transform="translate(16.841 0)"/>
      <path id="Path_89" data-name="Path 89" class="cls-42" d="M45.743,6.773,44.14,34.3a7.1,7.1,0,0,1-7.5,6.674L5.849,39.184A7.092,7.092,0,0,1,0,35.441a7.051,7.051,0,0,0,2.741.726l33.036,1.925A4.849,4.849,0,0,0,40.9,33.533L42.635,3.756A7.069,7.069,0,0,0,41.812,0,7.1,7.1,0,0,1,45.743,6.773Zm0,0" transform="translate(17.677 2.533)"/>
      <path id="Path_90" data-name="Path 90" class="cls-43" d="M6.637,7.908.832,7.57A.883.883,0,0,1,0,6.637L.34.832A.883.883,0,0,1,1.273,0L7.078.34a.882.882,0,0,1,.83.933L7.57,7.078A.882.882,0,0,1,6.637,7.908Zm0,0" transform="translate(24.278 5.868)"/>
      <path id="Path_91" data-name="Path 91" class="cls-43" d="M6.637,7.908.832,7.57A.883.883,0,0,1,0,6.637L.34.832A.883.883,0,0,1,1.273,0L7.078.339a.884.884,0,0,1,.83.933L7.57,7.078A.883.883,0,0,1,6.637,7.908Zm0,0" transform="translate(36.835 6.6)"/>
      <path id="Path_92" data-name="Path 92" class="cls-43" d="M6.637,7.908.832,7.57A.884.884,0,0,1,0,6.637L.34.832A.884.884,0,0,1,1.273,0L7.078.34a.883.883,0,0,1,.83.933L7.57,7.078A.883.883,0,0,1,6.637,7.908Zm0,0" transform="translate(49.392 7.332)"/>
      <path id="Path_93" data-name="Path 93" class="cls-44" d="M7.909,1l-.338,5.8a.884.884,0,0,1-.933.831L.831,7.3A.882.882,0,0,1,0,6.366L.066,5.24l4.613.27a.883.883,0,0,0,.933-.83L5.886,0,7.078.069A.883.883,0,0,1,7.909,1Zm0,0" transform="translate(49.392 7.603)"/>
      <path id="Path_94" data-name="Path 94" class="cls-43" d="M6.637,7.908.832,7.57A.883.883,0,0,1,0,6.637L.34.832A.882.882,0,0,1,1.272,0L7.078.34a.883.883,0,0,1,.83.933L7.57,7.078A.883.883,0,0,1,6.637,7.908Zm0,0" transform="translate(48.739 18.538)"/>
      <path id="Path_95" data-name="Path 95" class="cls-43" d="M6.637,7.908.832,7.57A.883.883,0,0,1,0,6.637L.339.832A.883.883,0,0,1,1.272,0L7.078.34a.883.883,0,0,1,.83.933L7.57,7.078A.883.883,0,0,1,6.637,7.908Zm0,0" transform="translate(48.086 29.745)"/>
      <path id="Path_96" data-name="Path 96" class="cls-44" d="M7.908.983,7.57,6.788a.882.882,0,0,1-.933.83L.832,7.28A.883.883,0,0,1,0,6.347l.056-.974,4.949.288a.882.882,0,0,0,.932-.83L6.221,0l.858.05A.884.884,0,0,1,7.908.983Zm0,0" transform="translate(48.739 18.828)"/>
      <path id="Path_97" data-name="Path 97" class="cls-44" d="M7.908.983l-.338,5.8a.883.883,0,0,1-.933.831L.832,7.28A.883.883,0,0,1,0,6.347l.056-.975,4.949.288a.882.882,0,0,0,.933-.829L6.222,0l.857.05A.882.882,0,0,1,7.908.983Zm0,0" transform="translate(48.085 30.035)"/>
      <path id="Path_98" data-name="Path 98" class="cls-45" d="M37.941,41.776H7.1a7.1,7.1,0,0,1-7.1-7.1V7.1A7.1,7.1,0,0,1,7.1,0H37.941a7.1,7.1,0,0,1,7.1,7.1V34.677A7.1,7.1,0,0,1,37.941,41.776Zm0,0" transform="translate(0 17.378)"/>
      <path id="Path_99" data-name="Path 99" class="cls-46" d="M44.593,6.93V34.508a7.1,7.1,0,0,1-7.1,7.1H6.652A7.1,7.1,0,0,1,0,36.994a6.851,6.851,0,0,0,4.577,1.745H36.81a4.532,4.532,0,0,0,4.532-4.532V5.137A6.864,6.864,0,0,0,39.039,0,7.1,7.1,0,0,1,44.593,6.93Zm0,0" transform="translate(0.447 17.546)"/>
      <g id="Group_14" data-name="Group 14" transform="translate(6.152 23.25)">
        <path id="Path_100" data-name="Path 100" class="cls-47" d="M6.7,7.581H.883A.883.883,0,0,1,0,6.7V.883A.883.883,0,0,1,.883,0H6.7a.883.883,0,0,1,.883.883V6.7A.883.883,0,0,1,6.7,7.581Zm0,0" transform="translate(0 11.225)"/>
        <path id="Path_101" data-name="Path 101" class="cls-47" d="M6.7,7.581H.883A.883.883,0,0,1,0,6.7V.883A.883.883,0,0,1,.883,0H6.7a.883.883,0,0,1,.883.883V6.7A.883.883,0,0,1,6.7,7.581Zm0,0" transform="translate(12.578 11.225)"/>
        <path id="Path_102" data-name="Path 102" class="cls-47" d="M6.7,7.581H.883A.883.883,0,0,1,0,6.7V.883A.883.883,0,0,1,.883,0H6.7a.883.883,0,0,1,.883.883V6.7A.883.883,0,0,1,6.7,7.581Zm0,0" transform="translate(25.156 11.225)"/>
        <path id="Path_103" data-name="Path 103" class="cls-47" d="M6.7,7.581H.883A.883.883,0,0,1,0,6.7V.883A.883.883,0,0,1,.883,0H6.7a.883.883,0,0,1,.883.883V6.7A.883.883,0,0,1,6.7,7.581Zm0,0" transform="translate(0 0)"/>
        <path id="Path_104" data-name="Path 104" class="cls-47" d="M6.7,7.581H.883A.883.883,0,0,1,0,6.7V.883A.883.883,0,0,1,.883,0H6.7a.883.883,0,0,1,.883.883V6.7A.883.883,0,0,1,6.7,7.581Zm0,0" transform="translate(12.578 0)"/>
        <path id="Path_105" data-name="Path 105" class="cls-47" d="M6.7,7.581H.883A.883.883,0,0,1,0,6.7V.883A.883.883,0,0,1,.883,0H6.7a.883.883,0,0,1,.883.883V6.7A.883.883,0,0,1,6.7,7.581Zm0,0" transform="translate(25.156 0)"/>
      </g>
      <path id="Path_106" data-name="Path 106" class="cls-48" d="M7.582.883V6.7a.882.882,0,0,1-.883.882H.883A.882.882,0,0,1,0,6.7V5.565H4.009a.884.884,0,0,0,.883-.883V0H6.7A.883.883,0,0,1,7.582.883Zm0,0" transform="translate(31.307 23.249)"/>
      <path id="Path_107" data-name="Path 107" class="cls-48" d="M7.582.883V6.7a.882.882,0,0,1-.883.882H.883A.883.883,0,0,1,0,6.7V5.565H4.009a.884.884,0,0,0,.883-.883V0H6.7A.883.883,0,0,1,7.582.883Zm0,0" transform="translate(31.307 34.475)"/>
      <path id="Path_108" data-name="Path 108" class="cls-47" d="M6.7,7.581H.883A.883.883,0,0,1,0,6.7V.883A.883.883,0,0,1,.883,0H6.7a.883.883,0,0,1,.883.883V6.7A.883.883,0,0,1,6.7,7.581Zm0,0" transform="translate(6.152 45.701)"/>
      <path id="Path_109" data-name="Path 109" class="cls-47" d="M6.7,7.581H.883A.883.883,0,0,1,0,6.7V.883A.883.883,0,0,1,.883,0H6.7a.883.883,0,0,1,.883.883V6.7A.883.883,0,0,1,6.7,7.581Zm0,0" transform="translate(18.73 45.701)"/>
      <path id="Path_110" data-name="Path 110" class="cls-47" d="M6.7,7.581H.883A.883.883,0,0,1,0,6.7V.883A.883.883,0,0,1,.883,0H6.7a.883.883,0,0,1,.883.883V6.7A.883.883,0,0,1,6.7,7.581Zm0,0" transform="translate(31.308 45.701)"/>
      <path id="Path_111" data-name="Path 111" class="cls-48" d="M7.582.883V6.7a.882.882,0,0,1-.883.882H.883A.883.883,0,0,1,0,6.7V5.565H4.009a.884.884,0,0,0,.883-.883V0H6.7A.883.883,0,0,1,7.582.883Zm0,0" transform="translate(31.307 45.701)"/>
    </g>
    <circle id="Ellipse_3" data-name="Ellipse 3" class="cls-49" cx="10.5" cy="10.5" r="10.5" transform="translate(48.608 52)"/>
    <circle id="Ellipse_4" data-name="Ellipse 4" class="cls-50" cx="36" cy="36" r="36" transform="translate(-16.392 278)"/>
    <circle id="Ellipse_5" data-name="Ellipse 5" class="cls-49" cx="10.5" cy="10.5" r="10.5" transform="translate(182.608 305)"/>
    <circle id="Ellipse_6" data-name="Ellipse 6" class="cls-50" cx="36" cy="36" r="36" transform="translate(19.608 639)"/>
  </g>
</svg>
